#!OML:ASF G:\JayActor3\Patient Classification 1\Patient 1\Session 2\male.ASF
:FULLY-SPECIFIED
:DEGREES
3214
root -6.54684 16.8774 -4.05816 -694.961 -442.415 336.048
lowerback -10.0909 6.21912 3.97224
upperback -3.90371 7.85025 -3.32726
thorax 2.54214 3.84679 -4.67273
lowerneck -2.19608 8.6374 8.91609
upperneck 10.5598 10.8435 1.58633
head 4.34093 5.74015 -0.488967
rclavicle 3.37934e-015 -2.06736e-014
rhumerus -39.9462 5.99738 -92.9007
rradius 31.9307
rwrist 0.741422
rhand -24.4512 1.34844
rfingers 7.12502
rthumb 2.04162 -28.6215
lclavicle 3.37934e-015 -2.06736e-014
lhumerus -39.4258 1.44624 65.0294
lradius 58.5953
lwrist 7.57759
lhand -13.1076 22.355
lfingers 7.12502
lthumb 12.9895 51.9306
rfemur 12.753 -3.18859 29.5176
rtibia 33.4972
rfoot 4.88438 -5.78552
rtoes 28.2097
lfemur -17.3519 -1.69256 -21.9427
ltibia 25.9038
lfoot -5.64005 -11.1623
ltoes 4.97487
3215
root -6.64718 16.8788 -4.05699 -696.683 -442.616 337.702
lowerback -9.93639 6.1384 3.72073
upperback -3.81478 7.7764 -3.36906
thorax 2.51589 3.81306 -4.59934
lowerneck -2.19228 8.58121 8.90189
upperneck 10.5491 10.7649 1.61664
head 4.3297 5.70132 -0.482119
rclavicle 7.15625e-015 -2.06736e-014
rhumerus -39.976 5.69279 -92.7072
rradius 32.2775
rwrist 0.495342
rhand -24.5481 1.26093
rfingers 7.12502
rthumb 1.94802 -28.7099
lclavicle 7.15625e-015 -2.06736e-014
lhumerus -39.3989 1.34254 65.4276
lradius 59.5615
lwrist 7.46018
lhand -12.9763 22.4247
lfingers 7.12502
lthumb 13.1161 51.9922
rfemur 11.7729 -3.19923 28.9942
rtibia 35.6805
rfoot 6.09435 -6.18263
rtoes 28.5811
lfemur -16.7236 -1.51367 -22.2325
ltibia 25.6351
lfoot -5.8924 -11.2051
ltoes 4.86113
3216
root -6.74602 16.8794 -4.05419 -698.207 -442.824 339.157
lowerback -9.78486 6.06729 3.5231
upperback -3.72234 7.70966 -3.40546
thorax 2.50205 3.78309 -4.54801
lowerneck -2.17713 8.52105 8.88289
upperneck 10.5587 10.6801 1.65973
head 4.32217 5.66007 -0.470548
rclavicle -4.96962e-014 -1.27222e-014
rhumerus -40.0047 5.39327 -92.5109
rradius 32.6508
rwrist 0.24144
rhand -24.6374 1.17147
rfingers 7.12502
rthumb 1.86174 -28.8002
lclavicle -4.96962e-014 -1.27222e-014
lhumerus -39.3531 1.22172 65.8491
lradius 60.5301
lwrist 7.33881
lhand -12.8519 22.4648
lfingers 7.12502
lthumb 13.236 52.0246
rfemur 10.7531 -3.17613 28.4897
rtibia 37.8813
rfoot 7.36189 -6.62556
rtoes 28.7133
lfemur -16.1068 -1.32298 -22.495
ltibia 25.3838
lfoot -6.16141 -11.2379
ltoes 4.70784
3217
root -6.84339 16.8787 -4.05038 -699.536 -443.054 340.418
lowerback -9.63695 6.00616 3.36645
upperback -3.62782 7.65181 -3.43606
thorax 2.49784 3.75765 -4.51112
lowerneck -2.15392 8.45776 8.86339
upperneck 10.597 10.5894 1.71333
head 4.32263 5.61688 -0.455239
rclavicle -4.37326e-015 9.54166e-015
rhumerus -40.0268 5.11405 -92.3198
rradius 33.0373
rwrist -0.017611
rhand -24.7227 1.08437
rfingers 7.12502
rthumb 1.77936 -28.888
lclavicle -4.37326e-015 9.54166e-015
lhumerus -39.2994 1.0756 66.2883
lradius 61.5111
lwrist 7.24583
lhand -12.7352 22.4896
lfingers 7.12502
lthumb 13.3485 52.042
rfemur 9.6884 -3.09828 28.0119
rtibia 40.0939
rfoot 8.62645 -7.13042
rtoes 28.4571
lfemur -15.5074 -1.12435 -22.7314
ltibia 25.1597
lfoot -6.44658 -11.254
ltoes 4.55628
3218
root -6.9393 16.8766 -4.04626 -700.83 -443.311 341.646
lowerback -9.49573 5.95096 3.22031
upperback -3.52848 7.60037 -3.46398
thorax 2.50401 3.73556 -4.47514
lowerneck -2.12515 8.3938 8.84333
upperneck 10.6614 10.4965 1.77333
head 4.33106 5.57328 -0.437274
rclavicle 1.38752e-013 -1.27222e-014
rhumerus -40.03 4.86833 -92.1382
rradius 33.4215
rwrist -0.277636
rhand -24.8007 1.00117
rfingers 7.12502
rthumb 1.70405 -28.9718
lclavicle 1.38752e-013 -1.27222e-014
lhumerus -39.2369 0.918504 66.7382
lradius 62.5054
lwrist 7.1966
lhand -12.6202 22.5034
lfingers 7.12502
lthumb 13.4593 52.0485
rfemur 8.57755 -2.96123 27.5496
rtibia 42.3134
rfoot 9.79307 -7.68854
rtoes 27.7981
lfemur -14.9285 -0.918295 -22.9615
ltibia 24.965
lfoot -6.74154 -11.2567
ltoes 4.41463
3219
root -7.03351 16.8729 -4.0424 -702.162 -443.6 342.917
lowerback -9.35788 5.90143 3.0729
upperback -3.42669 7.55611 -3.49275
thorax 2.51529 3.71702 -4.43767
lowerneck -2.09553 8.32862 8.82798
upperneck 10.7577 10.3997 1.83773
head 4.35099 5.52877 -0.417848
rclavicle -7.15625e-015 -1.90833e-014
rhumerus -40.0106 4.65196 -91.9692
rradius 33.7927
rwrist -0.523969
rhand -24.8692 0.920905
rfingers 7.12502
rthumb 1.63788 -29.0526
lclavicle -7.15625e-015 -1.90833e-014
lhumerus -39.1652 0.763182 67.1878
lradius 63.5132
lwrist 7.1976
lhand -12.4641 22.4814
lfingers 7.12502
lthumb 13.6098 52.0165
rfemur 7.41478 -2.76826 27.0975
rtibia 44.5387
rfoot 10.7581 -8.23926
rtoes 26.8228
lfemur -14.3709 -0.707227 -23.1912
ltibia 24.7923
lfoot -7.03645 -11.2433
ltoes 4.30125
3220
root -7.12597 16.8679 -4.03942 -703.69 -443.924 344.389
lowerback -9.22076 5.85544 2.90221
upperback -3.32549 7.51804 -3.52657
thorax 2.52479 3.70125 -4.39162
lowerneck -2.06088 8.26169 8.82002
upperneck 10.8812 10.2988 1.90442
head 4.38026 5.48312 -0.398452
rclavicle -2.88238e-014 1.59028e-015
rhumerus -39.9736 4.4644 -91.8158
rradius 34.1531
rwrist -0.741563
rhand -24.9188 0.834939
rfingers 7.12502
rthumb 1.59003 -29.1389
lclavicle -2.88238e-014 1.59028e-015
lhumerus -39.0847 0.627055 67.6285
lradius 64.5287
lwrist 7.23632
lhand -12.2759 22.4657
lfingers 7.12502
lthumb 13.7911 51.9886
rfemur 6.19898 -2.52298 26.643
rtibia 46.7639
rfoot 11.453 -8.69288
rtoes 25.6464
lfemur -13.8349 -0.487168 -23.4345
ltibia 24.6346
lfoot -7.32055 -11.2199
ltoes 4.2162
3221
root -7.21648 16.8618 -4.03743 -705.602 -444.277 346.256
lowerback -9.08928 5.80751 2.69398
upperback -3.22263 7.47997 -3.56741
thorax 2.53536 3.68516 -4.33143
lowerneck -2.02151 8.19391 8.81144
upperneck 11.0245 10.1955 1.97622
head 4.41553 5.43679 -0.376972
rclavicle -4.13472e-014 1.11319e-014
rhumerus -39.9188 4.31196 -91.6799
rradius 34.5066
rwrist -0.929113
rhand -24.9651 0.748485
rfingers 7.12502
rthumb 1.54527 -29.2257
lclavicle -4.13472e-014 1.11319e-014
lhumerus -38.9868 0.537633 68.0537
lradius 65.5426
lwrist 7.29185
lhand -12.0836 22.4605
lfingers 7.12502
lthumb 13.9764 51.9706
rfemur 4.92954 -2.23639 26.1736
rtibia 48.982
rfoot 11.8337 -8.94876
rtoes 24.4547
lfemur -13.323 -0.256543 -23.7051
ltibia 24.4838
lfoot -7.59222 -11.1913
ltoes 4.14683
3222
root -7.30498 16.8546 -4.03689 -707.923 -444.649 348.536
lowerback -8.952 5.75583 2.45346
upperback -3.12043 7.43908 -3.61358
thorax 2.53852 3.66718 -4.25988
lowerneck -1.97415 8.12358 8.79769
upperneck 11.1835 10.0874 2.05917
head 4.45386 5.38858 -0.351081
rclavicle -1.2921e-014 2.8625e-014
rhumerus -39.8521 4.18274 -91.5606
rradius 34.8541
rwrist -1.07148
rhand -25.0058 0.669027
rfingers 7.12502
rthumb 1.50594 -29.3054
lclavicle -1.2921e-014 2.8625e-014
lhumerus -38.8728 0.500676 68.4601
lradius 66.5516
lwrist 7.34485
lhand -11.9092 22.4794
lfingers 7.12502
lthumb 14.1445 51.9779
rfemur 3.61789 -1.91014 25.7042
rtibia 51.1782
rfoot 11.8905 -8.9181
rtoes 23.3062
lfemur -12.8271 -0.0139872 -23.9907
ltibia 24.3343
lfoot -7.84371 -11.163
ltoes 4.11037
3223
root -7.39165 16.8468 -4.03691 -710.793 -445.03 351.373
lowerback -8.81871 5.70032 2.19019
upperback -3.0185 7.39425 -3.66849
thorax 2.54163 3.6468 -4.18489
lowerneck -1.92324 8.04935 8.7702
upperneck 11.3555 9.97226 2.15852
head 4.49419 5.33723 -0.317625
rclavicle 1.04561e-013 -4.77083e-015
rhumerus -39.7752 4.07684 -91.4595
rradius 35.1999
rwrist -1.18021
rhand -25.0457 0.594188
rfingers 7.12502
rthumb 1.46744 -29.3805
lclavicle 1.04561e-013 -4.77083e-015
lhumerus -38.7405 0.514719 68.8501
lradius 67.5553
lwrist 7.36921
lhand -11.7501 22.4965
lfingers 7.12502
lthumb 14.2978 51.9842
rfemur 2.26482 -1.55076 25.2233
rtibia 53.337
rfoot 11.6722 -8.55135
rtoes 22.2078
lfemur -12.3483 0.241686 -24.2989
ltibia 24.1805
lfoot -8.08222 -11.1321
ltoes 4.06513
3224
root -7.47696 16.8387 -4.03704 -714.191 -445.407 354.744
lowerback -8.69311 5.63924 1.92309
upperback -2.91004 7.34183 -3.72677
thorax 2.55515 3.62258 -4.11099
lowerneck -1.87329 7.97332 8.7231
upperneck 11.5328 9.85336 2.2728
head 4.53444 5.28384 -0.275948
rclavicle -4.1546e-014 1.59028e-014
rhumerus -39.6799 3.99786 -91.3743
rradius 35.5424
rwrist -1.26818
rhand -25.1097 0.540284
rfingers 7.12502
rthumb 1.40562 -29.4348
lclavicle -4.1546e-014 1.59028e-014
lhumerus -38.5855 0.576248 69.2299
lradius 68.5548
lwrist 7.34944
lhand -11.6322 22.5112
lfingers 7.12502
lthumb 14.4114 51.9909
rfemur 0.887329 -1.15857 24.7474
rtibia 55.4381
rfoot 11.2176 -7.86822
rtoes 21.2009
lfemur -11.8774 0.510948 -24.6157
ltibia 24.0194
lfoot -8.3122 -11.0992
ltoes 3.9726
3225
root -7.56115 16.8306 -4.03689 -718.079 -445.776 358.605
lowerback -8.57421 5.57425 1.67078
upperback -2.79458 7.28271 -3.7861
thorax 2.58118 3.59505 -4.04596
lowerneck -1.82932 7.89052 8.65873
upperneck 11.7182 9.72329 2.40009
head 4.57672 5.22488 -0.22716
rclavicle -2.54444e-014 7.95139e-015
rhumerus -39.5684 3.94461 -91.3061
rradius 35.8819
rwrist -1.34371
rhand -25.2009 0.509309
rfingers 7.12502
rthumb 1.31758 -29.4664
lclavicle -2.54444e-014 7.95139e-015
lhumerus -38.4213 0.649441 69.6074
lradius 69.5671
lwrist 7.28966
lhand -11.5722 22.519
lfingers 7.12502
lthumb 14.4692 51.9945
rfemur -0.505617 -0.726551 24.2908
rtibia 57.4661
rfoot 10.5406 -6.95588
rtoes 20.1007
lfemur -11.4032 0.788191 -24.9267
ltibia 23.845
lfoot -8.53267 -11.0614
ltoes 3.86069
3226
root -7.64456 16.8231 -4.03633 -722.487 -446.13 362.982
lowerback -8.46547 5.50522 1.43926
upperback -2.66619 7.21668 -3.84233
thorax 2.628 3.56432 -3.98815
lowerneck -1.79512 7.80262 8.58093
upperneck 11.9041 9.58522 2.53028
head 4.62019 5.16152 -0.175086
rclavicle 3.99557e-014 2.8625e-014
rhumerus -39.4324 3.91891 -91.2512
rradius 36.216
rwrist -1.41647
rhand -25.3187 0.501005
rfingers 7.12502
rthumb 1.20378 -29.4753
lclavicle 3.99557e-014 2.8625e-014
lhumerus -38.2464 0.720298 69.9875
lradius 70.5943
lwrist 7.18166
lhand -11.5632 22.5124
lfingers 7.12502
lthumb 14.4779 51.9874
rfemur -1.90642 -0.249033 23.8624
rtibia 59.4086
rfoot 9.66641 -5.96447
rtoes 18.8572
lfemur -10.9199 1.0688 -25.2249
ltibia 23.6553
lfoot -8.74348 -11.0162
ltoes 3.73751
3227
root -7.72716 16.8162 -4.03524 -727.429 -446.463 367.884
lowerback -8.35877 5.43075 1.23601
upperback -2.52347 7.14156 -3.89344
thorax 2.69308 3.52939 -3.94058
lowerneck -1.76385 7.70979 8.49668
upperneck 12.0822 9.44082 2.65594
head 4.66144 5.09432 -0.123823
rclavicle 6.67916e-014 2.38542e-014
rhumerus -39.2732 3.91504 -91.2066
rradius 36.5452
rwrist -1.48676
rhand -25.4818 0.527706
rfingers 7.12502
rthumb 1.04623 -29.4495
lclavicle 6.67916e-014 2.38542e-014
lhumerus -38.0583 0.776244 70.3723
lradius 71.6352
lwrist 7.03552
lhand -11.5761 22.4667
lfingers 7.12502
lthumb 14.4655 51.9425
rfemur -3.3051 0.271842 23.4713
rtibia 61.2595
rfoot 8.60612 -4.99713
rtoes 17.4452
lfemur -10.4193 1.3454 -25.503
ltibia 23.4492
lfoot -8.94265 -10.9655
ltoes 3.63194
